<svg width="45" height="42" viewBox="0 0 45 42" fill="none" xmlns="http://www.w3.org/2000/svg">
<path d="M36.769 1.30042C37.9971 1.04708 39.2406 0.92041 40.4994 0.92041C41.7889 0.92041 43.0324 1.04708 44.2298 1.30042L36.3085 29.0414C34.9268 29.2666 33.5759 29.3792 32.2557 29.3792C31.0583 29.3792 29.692 29.2666 28.1569 29.0414L22.6304 10.4208L17.0117 29.0414C15.6301 29.2666 14.3099 29.3792 13.0511 29.3792C11.8537 29.3792 10.4874 29.2666 8.95225 29.0414L0.984863 1.30042C2.24368 1.04708 3.48714 0.92041 4.71526 0.92041C5.97407 0.92041 7.21754 1.04708 8.44565 1.30042L13.6037 20.85L18.5776 1.30042C19.8671 1.04708 21.218 0.92041 22.6304 0.92041C24.0427 0.92041 25.3629 1.04708 26.591 1.30042L32.5781 20.9345L36.769 1.30042Z" fill="white"/>
<path d="M7.11084 40.6375V36.299C7.11084 35.8632 7.44337 35.4893 7.91083 35.4105C10.2211 35.0214 17.1022 33.9498 22.8146 33.9498C28.5409 33.9498 35.6097 35.0267 37.9633 35.4134C38.4331 35.4906 38.7676 35.8655 38.7676 36.3031V40.6601C38.7676 41.2898 38.0847 41.754 37.4167 41.6078C35.2705 41.138 30.5183 40.3488 22.8146 40.3488C15.2022 40.3488 10.5918 41.1194 8.48339 41.591C7.80945 41.7417 7.11084 41.2735 7.11084 40.6375Z" fill="white"/>
</svg>
